<?xml version="1.0" standalone="no"?><!-- Generator: Gravit.io --><svg xmlns="http://www.w3.org/2000/svg" xmlns:xlink="http://www.w3.org/1999/xlink" style="isolation:isolate" viewBox="0 0 841.89 595.276" width="841.89" height="595.276"><defs><clipPath id="_clipPath_AZwyPRAKlWsQDa4RoH1w0ZtDbpeAMFvr"><rect width="841.89" height="595.276"/></clipPath></defs><g clip-path="url(#_clipPath_AZwyPRAKlWsQDa4RoH1w0ZtDbpeAMFvr)"><g><g><line x1="504.527" y1="208.615" x2="504.527" y2="386.66" vector-effect="non-scaling-stroke" stroke-width="1" stroke="rgb(0,0,0)" stroke-linejoin="miter" stroke-linecap="square" stroke-miterlimit="3"/><circle vector-effect="non-scaling-stroke" cx="0" cy="0" r="1" transform="matrix(52.835,0,0,52.835,557.362,260.033)" fill="none" stroke-width="1" stroke="rgb(0,0,0)" stroke-linejoin="miter" stroke-linecap="square" stroke-miterlimit="3"/></g><g><line x1="390.239" y1="207.198" x2="443.76" y2="207.198" vector-effect="non-scaling-stroke" stroke-width="1" stroke="rgb(0,0,0)" stroke-linejoin="miter" stroke-linecap="square" stroke-miterlimit="3"/><line x1="390.239" y1="385.243" x2="443.76" y2="385.243" vector-effect="non-scaling-stroke" stroke-width="1" stroke="rgb(0,0,0)" stroke-linejoin="miter" stroke-linecap="square" stroke-miterlimit="3"/><line x1="417" y1="207.198" x2="417" y2="385.243" vector-effect="non-scaling-stroke" stroke-width="1" stroke="rgb(0,0,0)" stroke-linejoin="miter" stroke-linecap="square" stroke-miterlimit="3"/></g><g><line x1="224.799" y1="208.466" x2="289.223" y2="386.66" vector-effect="non-scaling-stroke" stroke-width="1" stroke="rgb(0,0,0)" stroke-linejoin="miter" stroke-linecap="square" stroke-miterlimit="3"/><line x1="353.648" y1="208.466" x2="289.223" y2="386.66" vector-effect="non-scaling-stroke" stroke-width="1" stroke="rgb(0,0,0)" stroke-linejoin="miter" stroke-linecap="square" stroke-miterlimit="3"/></g><circle vector-effect="non-scaling-stroke" cx="0" cy="0" r="1" transform="matrix(1.417,0,0,1.417,359.856,386.66)" fill="rgb(0,0,0)"/><circle vector-effect="non-scaling-stroke" cx="0" cy="0" r="1" transform="matrix(1.417,0,0,1.417,474.144,385.243)" fill="rgb(0,0,0)"/><circle vector-effect="non-scaling-stroke" cx="0" cy="0" r="1" transform="matrix(1.417,0,0,1.417,615.58,386.66)" fill="rgb(0,0,0)"/></g></g></svg>