<?xml version="1.0" standalone="no"?><!-- Generator: Gravit.io --><svg xmlns="http://www.w3.org/2000/svg" xmlns:xlink="http://www.w3.org/1999/xlink" style="isolation:isolate" viewBox="0 0 841.89 595.276" width="841.89" height="595.276"><defs><clipPath id="_clipPath_aEKJ8rtANqb1QY6iPwFJTYh52ciRMkwp"><rect width="841.89" height="595.276"/></clipPath></defs><g clip-path="url(#_clipPath_aEKJ8rtANqb1QY6iPwFJTYh52ciRMkwp)"><g><g><line x1="341.445" y1="252.138" x2="375.445" y2="343.138" vector-effect="non-scaling-stroke" stroke-width="1" stroke="rgb(0,0,0)" stroke-linejoin="miter" stroke-linecap="square" stroke-miterlimit="3"/><line x1="466.445" y1="343.138" x2="500.445" y2="252.138" vector-effect="non-scaling-stroke" stroke-width="1" stroke="rgb(0,0,0)" stroke-linejoin="miter" stroke-linecap="square" stroke-miterlimit="3"/><line x1="375.445" y1="343.138" x2="466.445" y2="343.138" vector-effect="non-scaling-stroke" stroke-width="1" stroke="rgb(0,0,0)" stroke-linejoin="miter" stroke-linecap="square" stroke-miterlimit="3"/><line x1="500.445" y1="252.138" x2="534.445" y2="252.138" vector-effect="non-scaling-stroke" stroke-width="1" stroke="rgb(0,0,0)" stroke-linejoin="miter" stroke-linecap="square" stroke-miterlimit="3"/></g><g><g><line x1="440.343" y1="276.977" x2="440.343" y2="318.298" vector-effect="non-scaling-stroke" stroke-width="1" stroke="rgb(0,0,0)" stroke-linejoin="miter" stroke-linecap="square" stroke-miterlimit="3"/><circle vector-effect="non-scaling-stroke" cx="0" cy="0" r="1" transform="matrix(12.262,0,0,12.262,452.605,288.91)" fill="none" stroke-width="1" stroke="rgb(0,0,0)" stroke-linejoin="miter" stroke-linecap="square" stroke-miterlimit="3"/></g><g><line x1="413.819" y1="276.648" x2="426.24" y2="276.648" vector-effect="non-scaling-stroke" stroke-width="1" stroke="rgb(0,0,0)" stroke-linejoin="miter" stroke-linecap="square" stroke-miterlimit="3"/><line x1="413.819" y1="317.969" x2="426.24" y2="317.969" vector-effect="non-scaling-stroke" stroke-width="1" stroke="rgb(0,0,0)" stroke-linejoin="miter" stroke-linecap="square" stroke-miterlimit="3"/><line x1="420.029" y1="276.648" x2="420.029" y2="317.969" vector-effect="non-scaling-stroke" stroke-width="1" stroke="rgb(0,0,0)" stroke-linejoin="miter" stroke-linecap="square" stroke-miterlimit="3"/></g><g><line x1="375.423" y1="276.943" x2="390.375" y2="318.298" vector-effect="non-scaling-stroke" stroke-width="1" stroke="rgb(0,0,0)" stroke-linejoin="miter" stroke-linecap="square" stroke-miterlimit="3"/><line x1="405.327" y1="276.943" x2="390.375" y2="318.298" vector-effect="non-scaling-stroke" stroke-width="1" stroke="rgb(0,0,0)" stroke-linejoin="miter" stroke-linecap="square" stroke-miterlimit="3"/></g><circle vector-effect="non-scaling-stroke" cx="0" cy="0" r="1" transform="matrix(0.329,0,0,0.329,406.767,318.298)" fill="rgb(0,0,0)"/><circle vector-effect="non-scaling-stroke" cx="0" cy="0" r="1" transform="matrix(0.329,0,0,0.329,433.291,317.969)" fill="rgb(0,0,0)"/><circle vector-effect="non-scaling-stroke" cx="0" cy="0" r="1" transform="matrix(0.329,0,0,0.329,466.116,318.298)" fill="rgb(0,0,0)"/></g><g><circle vector-effect="non-scaling-stroke" cx="0" cy="0" r="1" transform="matrix(0.901,0,0,0.901,500.579,252.138)" fill="none" stroke-width="1" stroke="rgb(0,0,0)" stroke-linejoin="miter" stroke-linecap="square" stroke-miterlimit="3"/><circle vector-effect="non-scaling-stroke" cx="0" cy="0" r="1" transform="matrix(0.901,0,0,0.901,466.375,343.138)" fill="none" stroke-width="1" stroke="rgb(0,0,0)" stroke-linejoin="miter" stroke-linecap="square" stroke-miterlimit="3"/><circle vector-effect="non-scaling-stroke" cx="0" cy="0" r="1" transform="matrix(0.901,0,0,0.901,375.375,343.138)" fill="none" stroke-width="1" stroke="rgb(0,0,0)" stroke-linejoin="miter" stroke-linecap="square" stroke-miterlimit="3"/><circle vector-effect="non-scaling-stroke" cx="0" cy="0" r="1" transform="matrix(0.901,0,0,0.901,341.375,252.138)" fill="none" stroke-width="1" stroke="rgb(0,0,0)" stroke-linejoin="miter" stroke-linecap="square" stroke-miterlimit="3"/><circle vector-effect="non-scaling-stroke" cx="0" cy="0" r="1" transform="matrix(0.901,0,0,0.901,534.375,252.138)" fill="none" stroke-width="1" stroke="rgb(0,0,0)" stroke-linejoin="miter" stroke-linecap="square" stroke-miterlimit="3"/></g></g></g></svg>