<?xml version="1.0" standalone="no"?><!-- Generator: Gravit.io --><svg xmlns="http://www.w3.org/2000/svg" xmlns:xlink="http://www.w3.org/1999/xlink" style="isolation:isolate" viewBox="0 0 841.89 595.276" width="841.89" height="595.276"><defs><clipPath id="_clipPath_OgOFazZvKilcv8JcJiWQZqtoh8iN4kTq"><rect width="841.89" height="595.276"/></clipPath></defs><g clip-path="url(#_clipPath_OgOFazZvKilcv8JcJiWQZqtoh8iN4kTq)"><g><g><line x1="504.527" y1="208.615" x2="504.527" y2="386.66" vector-effect="non-scaling-stroke" stroke-width="1" stroke="rgb(0,0,0)" stroke-linejoin="miter" stroke-linecap="square" stroke-miterlimit="3"/><circle vector-effect="non-scaling-stroke" cx="0" cy="0" r="1" transform="matrix(52.835,0,0,52.835,557.362,260.033)" fill="rgb(255,255,255)" stroke-width="1" stroke="rgb(0,0,0)" stroke-linejoin="miter" stroke-linecap="square" stroke-miterlimit="3"/></g><g><line x1="390.239" y1="207.198" x2="443.76" y2="207.198" vector-effect="non-scaling-stroke" stroke-width="1" stroke="rgb(0,0,0)" stroke-linejoin="miter" stroke-linecap="square" stroke-miterlimit="3"/><line x1="390.239" y1="385.243" x2="443.76" y2="385.243" vector-effect="non-scaling-stroke" stroke-width="1" stroke="rgb(0,0,0)" stroke-linejoin="miter" stroke-linecap="square" stroke-miterlimit="3"/><line x1="417" y1="207.198" x2="417" y2="385.243" vector-effect="non-scaling-stroke" stroke-width="1" stroke="rgb(0,0,0)" stroke-linejoin="miter" stroke-linecap="square" stroke-miterlimit="3"/></g><g><path d=" M 289.152 387.268 L 289.322 387.748 L 288.372 388.078 L 288.212 387.608 L 225.052 207.998 L 224.892 207.528 L 225.832 207.198 L 225.992 207.668 L 289.152 387.268 Z " fill="rgb(0,0,0)"/><path d=" M 289.152 387.608 L 288.992 388.078 L 288.042 387.748 L 288.212 387.268 L 351.372 207.668 L 351.532 207.198 L 352.472 207.528 L 352.312 207.998 L 289.152 387.608 Z " fill="rgb(0,0,0)"/></g><circle vector-effect="non-scaling-stroke" cx="0" cy="0" r="1" transform="matrix(1.417,0,0,1.417,359.856,386.66)" fill="rgb(0,0,0)"/><circle vector-effect="non-scaling-stroke" cx="0" cy="0" r="1" transform="matrix(1.417,0,0,1.417,474.144,385.243)" fill="rgb(0,0,0)"/><circle vector-effect="non-scaling-stroke" cx="0" cy="0" r="1" transform="matrix(1.417,0,0,1.417,615.58,386.66)" fill="rgb(0,0,0)"/></g></g></svg>